{"title":"T99 - Children Of Chaos ( 1992  Oldskool Techno ) ( FLAC )","uid":4939835,"size":468315849,"categoryP":"audio","categoryS":"flac","magnet":"?xt=urn:btih:f09ef7447926fcd6d8db26a796f9c38861e51bdf&amp;dn=T99+-+Children+Of+Chaos+%28+1992++Oldskool+Techno+%29+%28+FLAC+%29&amp;tr=udp%3A%2F%2Ftracker.openbittorrent.com%3A80&amp;tr=udp%3A%2F%2Fopen.demonii.com%3A1337&amp;tr=udp%3A%2F%2Ftracker.coppersurfer.tk%3A6969&amp;tr=udp%3A%2F%2Fexodus.desync.com%3A6969","seeders":1,"leechers":0,"uploader":"foteberg","files":28,"time":1244405744,"description":"T99 - Children Of Chaos     (EAC FLAC CUE Log Scans) Included\n\n\n\n\n\t\nLabel:\tColumbia\n\nCatalog#:\t471321 2\n\nFormat:\tCD, Album\n\nCountry:\tBelgium\n\nReleased:\t1992\n\nGenre:\tElectronic\n\nStyle:\tHardcore, Techno\n\nNotes:\tAll tracks produced by Patrick De Meyer and Olivier Abbeloos.\n\nVocals: Zenon Zevenbergen, Perla den Boer and Patricia Balrak.\n\n\n\n\n\n\n\nTracklisting:\n\n\n1 \t  \tIntro (0:31)\n\n2 \t  \tCatwalk (3:15)\n\n3 \t  \tAnasthasia (4:33)\n\n4 \t  \tMaximizor (3:46)\n  \t \n5 \t  \tAfter Beyond (5:57)\n\n6 \t  \tGardiac (4:49)\n  \t \n7 \t  \tThe Parkers (2:16)\n\n8 \t  \tNocturne (5:09)\n  \t \n9 \t  \tPerspectivo (0:36)\n\n10 \t  \tThe Skydreamer (3:59)\n\n11 \t  \tDogwalk (2:57)\n\n12 \t  \tThe Equation (3:52)\n  \t  \n13 \t  \tThe Skydreamer Dreams On (3:46)\n\n14 \t  \tAnasthasia (House Jam Mix) (4:19)\n\n15 \t  \tCatwalk (12&quot; Remix) (3:54)\n\n16 \t  \tRevenge Of The Gardian (4:50)\n\n17 \t  \tNocturne (6 O'Clock Mix) (4:38)\n\n\n\n\n\n\n\n\nEAC Log :\n\n\n\n\n\n\n\nExact Audio Copy V0.99 prebeta 4 from 23. January 2008\n\nEAC extraction logfile from 6. June 2009, 14:24\n\nT99 / Children of Chaos\n\nUsed drive  : HL-DT-STDVD-RAM GSA-H50L   Adapter: 0  ID: 0\n\nRead mode               : Secure\nUtilize accurate stream : Yes\nDefeat audio cache      : No\nMake use of C2 pointers : No\n\nRead offset correction                      : 102\nOverread into Lead-In and Lead-Out          : No\nFill up missing offset samples with silence : Yes\nDelete leading and trailing silent blocks   : No\nNull samples used in CRC calculations       : No\nUsed interface                              : Native Win32 interface for Win NT &amp; 2000\nGap handling                                : Not detected, thus appended to previous track\n\nUsed output format : Internal WAV Routines\nSample format      : 44.100 Hz; 16 Bit; Stereo\n\n\nTOC of the extracted CD\n\n     Track |   Start  |  Length  | Start sector | End sector \n    ---------------------------------------------------------\n        1  |  0:00.00 |  0:32.50 |         0    |     2449   \n        2  |  0:32.50 |  3:17.50 |      2450    |    17274   \n        3  |  3:50.25 |  4:36.12 |     17275    |    37986   \n        4  |  8:26.37 |  3:50.30 |     37987    |    55266   \n        5  | 12:16.67 |  6:01.15 |     55267    |    82356   \n        6  | 18:18.07 |  4:48.68 |     82357    |   104024   \n        7  | 23:07.00 |  2:19.27 |    104025    |   114476   \n        8  | 25:26.27 |  5:12.23 |    114477    |   137899   \n        9  | 30:38.50 |  0:37.70 |    137900    |   140744   \n       10  | 31:16.45 |  4:02.45 |    140745    |   158939   \n       11  | 35:19.15 |  3:00.07 |    158940    |   172446   \n       12  | 38:19.22 |  3:55.28 |    172447    |   190099   \n       13  | 42:14.50 |  3:47.20 |    190100    |   207144   \n       14  | 46:01.70 |  4:34.37 |    207145    |   227731   \n       15  | 50:36.32 |  3:57.20 |    227732    |   245526   \n       16  | 54:33.52 |  4:49.13 |    245527    |   267214   \n       17  | 59:22.65 |  4:38.45 |    267215    |   288109   \n\n\nTrack  1\n\n     Filename F:musicT99 - Children of Chaos 01 T99 - Intro.wav\n\n     Peak level 52.4 %\n     Track quality 100.0 %\n     Test CRC AD508AA6\n     Copy CRC AD508AA6\n     Cannot be verified as accurate (confidence 6)  [2FF3547C], AccurateRip returned [8C8EB388]\n     Copy OK\n\nTrack  2\n\n     Filename F:musicT99 - Children of Chaos 02 T99 - Catwalk.wav\n\n     Peak level 94.8 %\n     Track quality 100.0 %\n     Test CRC 14557639\n     Copy CRC 14557639\n     Cannot be verified as accurate (confidence 6)  [FC7209B9], AccurateRip returned [DEB3D7D6]\n     Copy OK\n\nTrack  3\n\n     Filename F:musicT99 - Children of Chaos 03 T99 - Anasthasia.wav\n\n     Peak level 96.2 %\n     Track quality 100.0 %\n     Test CRC F37CE492\n     Copy CRC F37CE492\n     Cannot be verified as accurate (confidence 6)  [A8B1E4E1], AccurateRip returned [E68E7373]\n     Copy OK\n\nTrack  4\n\n     Filename F:musicT99 - Children of Chaos 04 T99 - Maximizor.wav\n\n     Peak level 93.2 %\n     Track quality 100.0 %\n     Test CRC 19DF5496\n     Copy CRC 19DF5496\n     Cannot be verified as accurate (confidence 6)  [B6298A59], AccurateRip returned [B3EAE468]\n     Copy OK\n\nTrack  5\n\n     Filename F:musicT99 - Children of Chaos 05 T99 - After Beyond.wav\n\n     Peak level 87.7 %\n     Track quality 100.0 %\n     Test CRC B1C2A62F\n     Copy CRC B1C2A62F\n     Cannot be verified as accurate (confidence 6)  [9055B12C], AccurateRip returned [D88CE408]\n     Copy OK\n\nTrack  6\n\n     Filename F:musicT99 - Children of Chaos 06 T99 - Gardiac.wav\n\n     Peak level 88.7 %\n     Track quality 99.9 %\n     Test CRC C4AEFA97\n     Copy CRC C4AEFA97\n     Cannot be verified as accurate (confidence 6)  [268E2525], AccurateRip returned [587ED400]\n     Copy OK\n\nTrack  7\n\n     Filename F:musicT99 - Children of Chaos 07 T99 - The Parkers.wav\n\n     Peak level 93.5 %\n     Track quality 100.0 %\n     Test CRC CD44A28C\n     Copy CRC CD44A28C\n     Cannot be verified as accurate (confidence 6)  [7EF374E2], AccurateRip returned [98CFB2B7]\n     Copy OK\n\nTrack  8\n\n     Filename F:musicT99 - Children of Chaos 08 T99 - Nocturne.wav\n\n     Peak level 100.0 %\n     Track quality 100.0 %\n     Test CRC 6244A394\n     Copy CRC 6244A394\n     Cannot be verified as accurate (confidence 6)  [97649B52], AccurateRip returned [ECAC69FB]\n     Copy OK\n\nTrack  9\n\n     Filename F:musicT99 - Children of Chaos 09 T99 - Perspectivo.wav\n\n     Peak level 79.5 %\n     Track quality 100.0 %\n     Test CRC E162F7C2\n     Copy CRC E162F7C2\n     Cannot be verified as accurate (confidence 6)  [DFF558BA], AccurateRip returned [AD6CF929]\n     Copy OK\n\nTrack 10\n\n     Filename F:musicT99 - Children of Chaos 10 T99 - The Skydreamer.wav\n\n     Peak level 99.9 %\n     Track quality 100.0 %\n     Test CRC 754B0007\n     Copy CRC 754B0007\n     Cannot be verified as accurate (confidence 6)  [41AF9A3B], AccurateRip returned [C8486567]\n     Copy OK\n\nTrack 11\n\n     Filename F:musicT99 - Children of Chaos 11 T99 - Dogwalk.wav\n\n     Peak level 64.9 %\n     Track quality 100.0 %\n     Test CRC D88FFF4F\n     Copy CRC D88FFF4F\n     Cannot be verified as accurate (confidence 6)  [CF9CB6ED], AccurateRip returned [C3059944]\n     Copy OK\n\nTrack 12\n\n     Filename F:musicT99 - Children of Chaos 12 T99 - The Equation.wav\n\n     Peak level 93.2 %\n     Track quality 100.0 %\n     Test CRC 229E20CF\n     Copy CRC 229E20CF\n     Cannot be verified as accurate (confidence 6)  [0B4D797D], AccurateRip returned [26B50DB2]\n     Copy OK\n\nTrack 13\n\n     Filename F:musicT99 - Children of Chaos 13 T99 - The Skydreamer Dreams On.wav\n\n     Peak level 99.3 %\n     Track quality 100.0 %\n     Test CRC 6C3BD318\n     Copy CRC 6C3BD318\n     Cannot be verified as accurate (confidence 6)  [EA4807EA], AccurateRip returned [FEE5090B]\n     Copy OK\n\nTrack 14\n\n     Filename F:musicT99 - Children of Chaos 14 T99 - Anasthasia (House Jam Mix).wav\n\n     Peak level 99.7 %\n     Track quality 100.0 %\n     Test CRC 093501FF\n     Copy CRC 093501FF\n     Cannot be verified as accurate (confidence 6)  [DDBEF871], AccurateRip returned [77CA8921]\n     Copy OK\n\nTrack 15\n\n     Filename F:musicT99 - Children of Chaos 15 T99 - Catwalk (12' Remix).wav\n\n     Peak level 70.0 %\n     Track quality 100.0 %\n     Test CRC 7E79381A\n     Copy CRC 7E79381A\n     Cannot be verified as accurate (confidence 6)  [B691DD8C], AccurateRip returned [E2C4D461]\n     Copy OK\n\nTrack 16\n\n     Filename F:musicT99 - Children of Chaos 16 T99 - Revenge Of The Guardian.wav\n\n     Peak level 95.2 %\n     Track quality 100.0 %\n     Test CRC 516B9D9C\n     Copy CRC 516B9D9C\n     Cannot be verified as accurate (confidence 6)  [A46DD712], AccurateRip returned [82682D9C]\n     Copy OK\n\nTrack 17\n\n     Filename F:musicT99 - Children of Chaos 17 T99 - Nocturne (6 O'Clock Mix).wav\n\n     Peak level 96.5 %\n     Track quality 99.9 %\n     Test CRC 81C09FF4\n     Copy CRC 81C09FF4\n     Cannot be verified as accurate (confidence 6)  [0C7FA698], AccurateRip returned [9A365ACC]\n     Copy OK\n\n\nNo tracks could be verified as accurate\nYou may have a different pressing from the one(s) in the database\n\nNo errors occurred\n\nEnd of status report\n\n\n\n\n\n\n\n\nEnjoy..\n\n\n\nThanks for Seeding..!!\n","torrent":{"xt":"urn:btih:f09ef7447926fcd6d8db26a796f9c38861e51bdf","amp;dn":"T99+-+Children+Of+Chaos+%28+1992++Oldskool+Techno+%29+%28+FLAC+%29","amp;tr":["udp%3A%2F%2Ftracker.openbittorrent.com%3A80","udp%3A%2F%2Fopen.demonii.com%3A1337","udp%3A%2F%2Ftracker.coppersurfer.tk%3A6969","udp%3A%2F%2Fexodus.desync.com%3A6969"],"infoHash":"f09ef7447926fcd6d8db26a796f9c38861e51bdf","infoHashBuffer":{"type":"Buffer","data":[240,158,247,68,121,38,252,214,216,219,38,167,150,249,195,136,97,229,27,223]},"announce":[],"urlList":[]}}